<?xml version="1.0" encoding="utf-8" standalone="no"?>
<!DOCTYPE svg PUBLIC "-//W3C//DTD SVG 1.1//EN"
  "http://www.w3.org/Graphics/SVG/1.1/DTD/svg11.dtd">
<svg xmlns:xlink="http://www.w3.org/1999/xlink" width="371.52pt" height="280.512pt" viewBox="0 0 371.52 280.512" xmlns="http://www.w3.org/2000/svg" version="1.1">
 <metadata>
  <rdf:RDF xmlns:dc="http://purl.org/dc/elements/1.1/" xmlns:cc="http://creativecommons.org/ns#" xmlns:rdf="http://www.w3.org/1999/02/22-rdf-syntax-ns#">
   <cc:Work>
    <dc:type rdf:resource="http://purl.org/dc/dcmitype/StillImage"/>
    <dc:date>2025-06-11T18:54:32.249117</dc:date>
    <dc:format>image/svg+xml</dc:format>
    <dc:creator>
     <cc:Agent>
      <dc:title>Matplotlib v3.10.0, https://matplotlib.org/</dc:title>
     </cc:Agent>
    </dc:creator>
   </cc:Work>
  </rdf:RDF>
 </metadata>
 <defs>
  <style type="text/css">*{stroke-linejoin: round; stroke-linecap: butt}</style>
 </defs>
 <g id="figure_1">
  <g id="patch_1">
   <path d="M 0 280.512 
L 371.52 280.512 
L 371.52 0 
L 0 0 
z
" style="fill: #ffffff"/>
  </g>
  <g id="axes_1">
   <g id="patch_2">
    <path d="M 7.2 273.312 
L 364.32 273.312 
L 364.32 7.2 
L 7.2 7.2 
z
" style="fill: #ffffff"/>
   </g>
   <g id="matplotlib.axis_1"/>
   <g id="matplotlib.axis_2"/>
   <g id="line2d_1">
    <path d="M 22.714469 69.218034 
L 29.237068 69.326605 
L 35.759668 69.652317 
L 42.282267 70.195172 
L 48.804867 70.955169 
L 55.327466 71.932308 
L 61.850066 73.126588 
L 68.372665 74.538011 
L 75.205864 76.249542 
L 82.039064 78.199388 
L 88.872263 80.387548 
L 95.705463 82.814023 
L 102.538662 85.478813 
L 109.371862 88.381916 
L 116.205061 91.523335 
L 123.038261 94.903068 
L 130.18206 98.691234 
L 137.325859 102.739872 
L 144.469659 107.048983 
L 151.613458 111.618565 
L 158.757258 116.448618 
L 165.901057 121.539144 
L 173.355456 127.128702 
L 180.809856 133.001874 
L 188.264255 139.15866 
L 195.718655 145.59906 
L 203.483654 152.609396 
L 211.248653 159.927473 
L 219.013653 167.553291 
L 226.778652 175.486849 
L 234.854251 184.064202 
L 242.929851 192.974407 
L 251.00545 202.217464 
L 259.081049 211.793374 
L 267.467249 222.089889 
L 275.853448 232.745354 
L 284.239647 243.759767 
L 292.625847 255.13313 
L 301.322646 267.306864 
L 310.019445 279.866629 
L 311.139289 281.512 
L 311.139289 281.512 
" clip-path="url(#pf0ed1305d7)" style="fill: none; stroke: #808080; stroke-width: 1.5; stroke-linecap: square"/>
   </g>
   <g id="line2d_2">
    <path d="M 22.714469 69.218034 
L 29.237068 68.84902 
L 35.759668 68.699905 
L 42.282267 68.770688 
L 48.804867 69.06137 
L 55.327466 69.57195 
L 61.850066 70.30243 
L 68.372665 71.252807 
L 74.895264 72.423084 
L 81.417864 73.813258 
L 87.940463 75.423332 
L 94.463063 77.253304 
L 101.296262 79.406273 
L 108.129462 81.800581 
L 114.962661 84.436229 
L 121.795861 87.313218 
L 128.62906 90.431546 
L 135.462259 93.791214 
L 142.295459 97.392223 
L 149.439258 101.414957 
L 156.583058 105.70147 
L 163.726857 110.251762 
L 170.870657 115.065833 
L 178.014456 120.143682 
L 185.158255 125.485309 
L 192.612655 131.340412 
L 200.067054 137.48273 
L 207.521454 143.912262 
L 214.975853 150.629008 
L 222.740852 157.931034 
L 230.505852 165.544707 
L 238.270851 173.470028 
L 246.03585 181.706996 
L 254.11145 190.60404 
L 262.187049 199.838161 
L 270.262648 209.40936 
L 278.338248 219.317638 
L 286.724447 229.963777 
L 295.110646 240.973422 
L 303.496846 252.346573 
L 312.193645 264.524902 
L 320.890444 277.094161 
L 323.884561 281.512 
L 323.884561 281.512 
" clip-path="url(#pf0ed1305d7)" style="fill: none; stroke: #808080; stroke-width: 1.5; stroke-linecap: square"/>
   </g>
   <g id="line2d_3">
    <path d="M 22.714469 69.218034 
L 29.237068 68.362017 
L 35.759668 67.734454 
L 42.282267 67.335346 
L 48.804867 67.164691 
L 55.327466 67.22249 
L 61.850066 67.508743 
L 68.372665 68.02345 
L 74.895264 68.766611 
L 81.417864 69.738226 
L 87.940463 70.938295 
L 94.463063 72.366818 
L 100.985662 74.023795 
L 107.508262 75.909226 
L 114.030861 78.023111 
L 120.553461 80.365449 
L 127.07606 82.936242 
L 133.90926 85.874484 
L 140.742459 89.063456 
L 147.575658 92.503158 
L 154.408858 96.193589 
L 161.242057 100.13475 
L 168.075257 104.32664 
L 175.219056 108.977154 
L 182.362856 113.901709 
L 189.506655 119.100306 
L 196.650454 124.572943 
L 203.794254 130.319622 
L 211.248653 136.608329 
L 218.703053 143.195424 
L 226.157452 150.080909 
L 233.611851 157.264782 
L 241.376851 165.065281 
L 249.14185 173.189552 
L 256.90685 181.637595 
L 264.671849 190.409412 
L 272.747448 199.875559 
L 280.823048 209.691898 
L 288.898647 219.85843 
L 296.974246 230.375154 
L 305.360446 241.667023 
L 313.746645 253.33654 
L 322.132844 265.383705 
L 330.829643 278.27595 
L 332.970565 281.512 
L 332.970565 281.512 
" clip-path="url(#pf0ed1305d7)" style="fill: none; stroke: #808080; stroke-width: 1.5; stroke-linecap: square"/>
   </g>
   <g id="line2d_4">
    <path d="M 22.714469 69.218034 
L 28.926468 67.91194 
L 35.138468 66.826916 
L 41.350467 65.962961 
L 47.562467 65.320076 
L 53.774466 64.89826 
L 59.986466 64.697513 
L 66.198465 64.717835 
L 72.410465 64.959227 
L 78.622464 65.421688 
L 84.834464 66.105218 
L 91.046463 67.009818 
L 97.258463 68.135487 
L 103.470462 69.482225 
L 109.682462 71.050033 
L 115.894461 72.83891 
L 122.417061 74.955156 
L 128.93966 77.315132 
L 135.462259 79.918836 
L 141.984859 82.76627 
L 148.507458 85.857432 
L 155.030058 89.192323 
L 161.552657 92.770943 
L 168.385857 96.781388 
L 175.219056 101.059327 
L 182.052256 105.60476 
L 188.885455 110.417687 
L 195.718655 115.498107 
L 202.551854 120.846022 
L 209.695653 126.723031 
L 216.839453 132.892405 
L 223.983252 139.354144 
L 231.127052 146.108246 
L 238.581451 153.467713 
L 246.03585 161.145519 
L 253.49025 169.141665 
L 260.944649 177.456151 
L 268.709649 186.455587 
L 276.474648 195.800443 
L 284.239647 205.49072 
L 292.315247 215.93503 
L 300.390846 226.752948 
L 308.466445 237.944473 
L 316.542045 249.509604 
L 324.928244 261.914987 
L 333.003843 274.241702 
L 333.003843 274.241702 
" clip-path="url(#pf0ed1305d7)" style="fill: none; stroke: #808080; stroke-width: 1.5; stroke-linecap: square"/>
   </g>
   <g id="line2d_5">
    <path d="M 22.714469 69.218034 
L 28.926468 67.389699 
L 34.827868 65.877517 
L 40.729267 64.584309 
L 46.630667 63.510076 
L 52.532066 62.654817 
L 58.433466 62.018531 
L 64.334865 61.60122 
L 70.236265 61.402883 
L 76.137664 61.42352 
L 82.039064 61.663131 
L 87.940463 62.121716 
L 93.841863 62.799275 
L 99.743262 63.695809 
L 105.644662 64.811316 
L 111.546061 66.145798 
L 117.447461 67.699253 
L 123.65946 69.571035 
L 129.87146 71.685446 
L 136.083459 74.042489 
L 142.295459 76.642162 
L 148.507458 79.484465 
L 154.719458 82.569399 
L 160.931457 85.896964 
L 167.143457 89.467159 
L 173.666056 93.476995 
L 180.188656 97.754332 
L 186.711255 102.299168 
L 193.233855 107.111505 
L 199.756454 112.191342 
L 206.589654 117.799987 
L 213.422853 123.702214 
L 220.256053 129.898025 
L 227.089252 136.387419 
L 234.233051 143.485688 
L 241.376851 150.904836 
L 248.52065 158.644863 
L 255.66445 166.705769 
L 263.118849 175.459259 
L 270.573248 184.562136 
L 278.027648 194.014402 
L 285.482047 203.816055 
L 293.247047 214.397639 
L 301.012046 225.358333 
L 308.777045 236.698137 
L 316.852645 248.893694 
L 324.928244 261.499296 
L 333.003843 274.514944 
L 333.003843 274.514944 
" clip-path="url(#pf0ed1305d7)" style="fill: none; stroke: #808080; stroke-width: 1.5; stroke-linecap: square"/>
   </g>
   <g id="line2d_6">
    <path d="M 22.714469 69.218034 
L 28.615868 66.925355 
L 34.517268 64.880606 
L 40.108067 63.172175 
L 45.698867 61.686262 
L 51.289666 60.422868 
L 56.880466 59.381993 
L 62.471265 58.563636 
L 68.062065 57.967797 
L 73.652865 57.594478 
L 79.243664 57.443676 
L 84.834464 57.515393 
L 90.425263 57.809629 
L 96.016063 58.326383 
L 101.606862 59.065656 
L 107.197662 60.027447 
L 112.788461 61.211757 
L 118.379261 62.618585 
L 123.97006 64.247932 
L 129.56086 66.099797 
L 135.462259 68.295949 
L 141.363659 70.74003 
L 147.265059 73.432041 
L 153.166458 76.371982 
L 159.067858 79.559852 
L 164.969257 82.995651 
L 170.870657 86.679381 
L 177.082656 90.824837 
L 183.294656 95.245007 
L 189.506655 99.939892 
L 195.718655 104.909491 
L 201.930654 110.153804 
L 208.453253 115.955994 
L 214.975853 122.061056 
L 221.498452 128.468991 
L 228.021052 135.179798 
L 234.854251 142.535017 
L 241.687451 150.22264 
L 248.52065 158.242668 
L 255.35385 166.595099 
L 262.497649 175.682599 
L 269.641448 185.133407 
L 276.785248 194.947526 
L 284.239647 205.575692 
L 291.694047 216.599446 
L 299.148446 228.018789 
L 306.602845 239.833721 
L 314.367845 252.561598 
L 322.132844 265.718715 
L 329.897844 279.305074 
L 331.136476 281.512 
L 331.136476 281.512 
" clip-path="url(#pf0ed1305d7)" style="fill: none; stroke: #808080; stroke-width: 1.5; stroke-linecap: square"/>
   </g>
   <g id="line2d_7">
    <path d="M 22.714469 69.218034 
L 28.305268 66.442821 
L 33.585468 64.061431 
L 38.865667 61.912838 
L 44.145867 59.997041 
L 49.426067 58.314041 
L 54.706266 56.863837 
L 59.986466 55.64643 
L 65.266665 54.66182 
L 70.546865 53.910006 
L 75.827064 53.390988 
L 81.107264 53.104768 
L 86.387464 53.051344 
L 91.667663 53.230716 
L 96.947863 53.642885 
L 102.228062 54.287851 
L 107.508262 55.165613 
L 112.788461 56.276172 
L 118.068661 57.619528 
L 123.34886 59.19568 
L 128.62906 61.004629 
L 133.90926 63.046374 
L 139.189459 65.320916 
L 144.469659 67.828254 
L 150.060458 70.736824 
L 155.651258 73.906383 
L 161.242057 77.336932 
L 166.832857 81.028471 
L 172.423656 84.981 
L 178.014456 89.194519 
L 183.915856 93.925264 
L 189.817255 98.946804 
L 195.718655 104.259138 
L 201.620054 109.862267 
L 207.832054 116.074451 
L 214.044053 122.608845 
L 220.256053 129.46545 
L 226.468052 136.644264 
L 232.990651 144.528797 
L 239.513251 152.768566 
L 246.03585 161.363572 
L 252.86905 170.748876 
L 259.702249 180.524055 
L 266.535449 190.689108 
L 273.368648 201.244034 
L 280.512448 212.695589 
L 287.656247 224.573266 
L 294.800046 236.877066 
L 302.254446 250.170129 
L 309.708845 263.927175 
L 317.163245 278.148203 
L 318.891698 281.512 
L 318.891698 281.512 
" clip-path="url(#pf0ed1305d7)" style="fill: none; stroke: #808080; stroke-width: 1.5; stroke-linecap: square"/>
   </g>
   <g id="line2d_8">
    <path d="M 22.714469 69.218034 
L 27.684068 66.105292 
L 32.653668 63.244651 
L 37.623268 60.636112 
L 42.592867 58.279674 
L 47.562467 56.175338 
L 52.532066 54.323103 
L 57.191066 52.815591 
L 61.850066 51.529653 
L 66.509065 50.465288 
L 71.168065 49.622497 
L 75.827064 49.001279 
L 80.486064 48.601635 
L 85.145064 48.423564 
L 89.804063 48.467066 
L 94.463063 48.732142 
L 99.122062 49.218791 
L 103.781062 49.927014 
L 108.440062 50.85681 
L 113.099061 52.008179 
L 117.758061 53.381122 
L 122.417061 54.975638 
L 127.38666 56.920678 
L 132.35626 59.11782 
L 137.325859 61.567063 
L 142.295459 64.268407 
L 147.265059 67.221852 
L 152.234658 70.427399 
L 157.204258 73.885047 
L 162.484457 77.835026 
L 167.764657 82.069604 
L 173.044856 86.588781 
L 178.325056 91.392556 
L 183.915856 96.789109 
L 189.506655 102.504728 
L 195.097455 108.539412 
L 200.688254 114.893162 
L 206.589654 121.946046 
L 212.491053 129.354431 
L 218.392453 137.118319 
L 224.293852 145.237708 
L 230.505852 154.168495 
L 236.717851 163.49319 
L 242.929851 173.211793 
L 249.45245 183.84027 
L 255.97505 194.903031 
L 262.497649 206.400076 
L 269.330849 218.910395 
L 276.164048 231.897344 
L 282.997247 245.360922 
L 289.830447 259.301128 
L 296.974246 274.384599 
L 300.26679 281.512 
L 300.26679 281.512 
" clip-path="url(#pf0ed1305d7)" style="fill: none; stroke: #808080; stroke-width: 1.5; stroke-linecap: square"/>
   </g>
   <g id="line2d_9">
    <path d="M 22.714469 69.218034 
L 27.373468 65.553043 
L 32.032468 62.173043 
L 36.691468 59.078032 
L 41.039867 56.446479 
L 45.388267 54.063183 
L 49.736667 51.928145 
L 54.085066 50.041365 
L 58.433466 48.402842 
L 62.781865 47.012577 
L 67.130265 45.870569 
L 71.168065 45.032425 
L 75.205864 44.40834 
L 79.243664 43.998314 
L 83.281464 43.802346 
L 87.319263 43.820437 
L 91.357063 44.052587 
L 95.394863 44.498796 
L 99.432662 45.159064 
L 103.470462 46.03339 
L 107.508262 47.121776 
L 111.856661 48.533274 
L 116.205061 50.19303 
L 120.553461 52.101044 
L 124.90186 54.257315 
L 129.25026 56.661843 
L 133.59866 59.314629 
L 137.947059 62.215673 
L 142.606059 65.599424 
L 147.265059 69.268165 
L 151.924058 73.221895 
L 156.583058 77.460614 
L 161.552657 82.296037 
L 166.522257 87.455715 
L 171.491857 92.939647 
L 176.461456 98.747834 
L 181.741656 105.274319 
L 187.021855 112.166858 
L 192.302055 119.42545 
L 197.582254 127.050095 
L 203.173054 135.522235 
L 208.763853 144.404759 
L 214.354653 153.697668 
L 220.256053 163.952066 
L 226.157452 174.663715 
L 232.058852 185.832613 
L 238.270851 198.08333 
L 244.482851 210.840696 
L 250.69485 224.104709 
L 257.217449 238.577203 
L 263.740049 253.608276 
L 270.262648 269.197929 
L 275.256774 281.512 
L 275.256774 281.512 
" clip-path="url(#pf0ed1305d7)" style="fill: none; stroke: #808080; stroke-width: 1.5; stroke-linecap: square"/>
   </g>
   <g id="line2d_10">
    <path d="M 22.714469 69.218034 
L 27.062868 64.878312 
L 31.100668 61.153856 
L 35.138468 57.723378 
L 39.176267 54.58688 
L 43.214067 51.744361 
L 46.941267 49.381425 
L 50.668466 47.26898 
L 54.395666 45.407026 
L 58.122866 43.795562 
L 61.850066 42.43459 
L 65.577265 41.324108 
L 69.304465 40.464118 
L 72.721065 39.895843 
L 76.137664 39.538049 
L 79.554264 39.390738 
L 82.970864 39.453908 
L 86.387464 39.72756 
L 89.804063 40.211695 
L 93.220663 40.906311 
L 96.637263 41.811409 
L 100.364462 43.038843 
L 104.091662 44.516767 
L 107.818862 46.245183 
L 111.546061 48.224089 
L 115.273261 50.453486 
L 119.000461 52.933374 
L 123.038261 55.902592 
L 127.07606 59.165788 
L 131.11386 62.722963 
L 135.15166 66.574118 
L 139.189459 70.719251 
L 143.537859 75.51201 
L 147.886258 80.645714 
L 152.234658 86.120365 
L 156.583058 91.935962 
L 161.242057 98.545304 
L 165.901057 105.546038 
L 170.560057 112.938164 
L 175.529656 121.2545 
L 180.499256 130.016152 
L 185.468855 139.223122 
L 190.749055 149.493463 
L 196.029255 160.266525 
L 201.309454 171.542309 
L 206.900254 184.029322 
L 212.491053 197.079941 
L 218.081853 210.694164 
L 223.983252 225.676173 
L 229.884652 241.28615 
L 235.786051 257.524093 
L 241.998051 275.295078 
L 244.115597 281.512 
L 244.115597 281.512 
" clip-path="url(#pf0ed1305d7)" style="fill: none; stroke: #808080; stroke-width: 1.5; stroke-linecap: square"/>
   </g>
   <g id="line2d_11">
    <path d="M 22.714469 69.218034 
L 26.441668 64.362285 
L 30.168868 59.883171 
L 33.585468 56.108181 
L 37.002068 52.649668 
L 40.418667 49.507634 
L 43.835267 46.682078 
L 46.941267 44.38802 
L 50.047266 42.355515 
L 53.153266 40.584562 
L 56.259266 39.075161 
L 59.365266 37.827312 
L 62.471265 36.841015 
L 65.266665 36.176975 
L 68.062065 35.724793 
L 70.857465 35.484467 
L 73.652865 35.455999 
L 76.448264 35.639389 
L 79.243664 36.034635 
L 82.039064 36.641739 
L 84.834464 37.4607 
L 87.629863 38.491518 
L 90.735863 39.885346 
L 93.841863 41.540727 
L 96.947863 43.457659 
L 100.053862 45.636144 
L 103.159862 48.076181 
L 106.576462 51.062314 
L 109.993062 54.364926 
L 113.409661 57.984015 
L 116.826261 61.919583 
L 120.553461 66.573872 
L 124.28066 71.604796 
L 128.00786 77.012355 
L 131.73506 82.796549 
L 135.772859 89.487782 
L 139.810659 96.621037 
L 143.848459 104.196316 
L 148.196858 112.848643 
L 152.545258 122.013612 
L 156.893658 131.691223 
L 161.552657 142.628967 
L 166.211657 154.155205 
L 170.870657 166.269934 
L 175.840256 179.840962 
L 180.809856 194.081564 
L 185.779455 208.991739 
L 191.059655 225.567453 
L 196.339854 242.899054 
L 201.620054 260.98654 
L 207.210854 280.961886 
L 207.36145 281.512 
L 207.36145 281.512 
" clip-path="url(#pf0ed1305d7)" style="fill: none; stroke: #808080; stroke-width: 1.5; stroke-linecap: square"/>
   </g>
   <g id="line2d_12">
    <path d="M 22.714469 69.218034 
L 25.820468 63.658763 
L 28.926468 58.550874 
L 32.032468 53.894365 
L 34.827868 50.089438 
L 37.623268 46.650129 
L 40.418667 43.576439 
L 42.903467 41.151208 
L 45.388267 39.014861 
L 47.873067 37.167398 
L 50.357866 35.608819 
L 52.842666 34.339123 
L 55.016866 33.465114 
L 57.191066 32.812282 
L 59.365266 32.380626 
L 61.539466 32.170147 
L 63.713665 32.180844 
L 65.887865 32.412718 
L 68.062065 32.865768 
L 70.236265 33.539995 
L 72.410465 34.435399 
L 74.584664 35.551979 
L 77.069464 37.098899 
L 79.554264 38.934703 
L 82.039064 41.05939 
L 84.523864 43.472961 
L 87.008663 46.175415 
L 89.804063 49.560983 
L 92.599463 53.312169 
L 95.394863 57.428974 
L 98.500863 62.432013 
L 101.606862 67.886432 
L 104.712862 73.792233 
L 107.818862 80.149414 
L 111.235461 87.663658 
L 114.652061 95.724072 
L 118.068661 104.330658 
L 121.795861 114.342565 
L 125.52306 125.004461 
L 129.25026 136.316345 
L 133.28806 149.30438 
L 137.325859 163.055248 
L 141.363659 177.56895 
L 145.712059 194.052199 
L 150.060458 211.420155 
L 154.408858 229.672818 
L 159.067858 250.210995 
L 163.726857 271.764778 
L 165.764657 281.512 
L 165.764657 281.512 
" clip-path="url(#pf0ed1305d7)" style="fill: none; stroke: #808080; stroke-width: 1.5; stroke-linecap: square"/>
   </g>
   <g id="line2d_13">
    <path d="M 22.714469 69.218034 
L 25.199269 62.441205 
L 27.684068 56.300796 
L 30.168868 50.796806 
L 32.343068 46.502877 
L 34.517268 42.696207 
L 36.691468 39.376795 
L 38.555067 36.919403 
L 40.418667 34.819997 
L 42.282267 33.078577 
L 43.835267 31.900855 
L 45.388267 30.971734 
L 46.941267 30.291214 
L 48.494267 29.859296 
L 50.047266 29.675979 
L 51.600266 29.741263 
L 53.153266 30.055149 
L 54.706266 30.617635 
L 56.259266 31.428724 
L 57.812266 32.488413 
L 59.365266 33.796704 
L 61.228866 35.694806 
L 63.092465 37.950894 
L 64.956065 40.564968 
L 66.819665 43.537028 
L 68.993865 47.456886 
L 71.168065 51.864002 
L 73.342265 56.758377 
L 75.827064 62.948591 
L 78.311864 69.775224 
L 80.796664 77.238277 
L 83.592064 86.394931 
L 86.387464 96.357053 
L 89.182863 107.124644 
L 92.288863 120.033318 
L 95.394863 133.936397 
L 98.500863 148.833882 
L 101.917462 166.369653 
L 105.334062 185.108654 
L 108.750662 205.050885 
L 112.477861 228.178325 
L 116.205061 252.737709 
L 119.932261 278.729036 
L 120.319437 281.512 
L 120.319437 281.512 
" clip-path="url(#pf0ed1305d7)" style="fill: none; stroke: #808080; stroke-width: 1.5; stroke-linecap: square"/>
   </g>
   <g id="line2d_14">
    <path d="M 22.714469 69.218034 
L 24.578069 59.145626 
L 26.131068 51.832086 
L 27.684068 45.500485 
L 29.237068 40.150823 
L 30.479468 36.57809 
L 31.721868 33.633799 
L 32.964268 31.317948 
L 33.896068 29.993474 
L 34.827868 29.022498 
L 35.759668 28.405021 
L 36.691468 28.141042 
L 37.312668 28.161443 
L 37.933867 28.338955 
L 38.865667 28.899805 
L 39.797467 29.814153 
L 40.729267 31.081998 
L 41.661067 32.703342 
L 42.903467 35.41502 
L 44.145867 38.755139 
L 45.388267 42.723699 
L 46.941267 48.568145 
L 48.494267 55.39453 
L 50.047266 63.202853 
L 51.910866 73.869002 
L 53.774466 85.949143 
L 55.638066 99.443276 
L 57.812266 116.973561 
L 59.986466 136.428446 
L 62.160665 157.807933 
L 64.645465 184.598286 
L 67.130265 213.902403 
L 69.615065 245.720285 
L 72.201359 281.512 
L 72.201359 281.512 
" clip-path="url(#pf0ed1305d7)" style="fill: none; stroke: #808080; stroke-width: 1.5; stroke-linecap: square"/>
   </g>
   <g id="line2d_15">
    <path d="M 22.714469 69.218034 
L 22.714469 281.512 
L 22.714469 281.512 
" clip-path="url(#pf0ed1305d7)" style="fill: none; stroke: #808080; stroke-width: 1.5; stroke-linecap: square"/>
   </g>
   <g id="line2d_16">
    <defs>
     <path id="mf15f9315a4" d="M 0 3 
C 0.795609 3 1.55874 2.683901 2.12132 2.12132 
C 2.683901 1.55874 3 0.795609 3 0 
C 3 -0.795609 2.683901 -1.55874 2.12132 -2.12132 
C 1.55874 -2.683901 0.795609 -3 0 -3 
C -0.795609 -3 -1.55874 -2.683901 -2.12132 -2.12132 
C -2.683901 -1.55874 -3 -0.795609 -3 0 
C -3 0.795609 -2.683901 1.55874 -2.12132 2.12132 
C -1.55874 2.683901 -0.795609 3 0 3 
z
" style="stroke: #000000"/>
    </defs>
    <g clip-path="url(#pf0ed1305d7)">
     <use xlink:href="#mf15f9315a4" x="22.714469" y="69.218034" style="stroke: #000000"/>
    </g>
   </g>
   <g id="LineCollection_1">
    <path d="M 22.714469 273.312 
L 22.714469 18.194542 
" clip-path="url(#pf0ed1305d7)" style="fill: none; stroke: #000000; stroke-width: 1.5"/>
   </g>
   <g id="LineCollection_2">
    <path d="M 22.714469 273.312 
L 348.661922 273.312 
" clip-path="url(#pf0ed1305d7)" style="fill: none; stroke: #000000; stroke-width: 1.5"/>
   </g>
   <g id="line2d_17">
    <path d="M 22.714469 69.218034 
L 24.578069 59.145626 
L 26.131068 51.832086 
L 27.684068 45.500485 
L 29.237068 40.150823 
L 30.479468 36.57809 
L 31.721868 33.633799 
L 32.964268 31.317948 
L 33.896068 29.993474 
L 34.827868 29.022498 
L 35.759668 28.405021 
L 36.691468 28.141042 
L 37.312668 28.161443 
L 37.933867 28.338955 
L 38.865667 28.899805 
L 39.797467 29.814153 
L 40.729267 31.081998 
L 41.661067 32.703342 
L 41.971667 33.322346 
L 44.456467 31.499374 
L 46.009467 30.669694 
L 47.562467 30.088615 
L 49.115467 29.756137 
L 50.668466 29.67226 
L 52.221466 29.836985 
L 53.774466 30.250311 
L 55.327466 30.912239 
L 56.880466 31.822767 
L 58.122866 32.600204 
L 60.297066 32.263338 
L 62.471265 32.147648 
L 64.645465 32.253136 
L 66.819665 32.5798 
L 68.993865 33.12764 
L 71.168065 33.896657 
L 73.342265 34.88685 
L 74.584664 35.493589 
L 77.380064 35.747598 
L 80.175464 36.213463 
L 82.970864 36.891186 
L 85.766264 37.780766 
L 88.872263 39.017663 
L 91.978263 40.516112 
L 92.599463 40.764361 
L 96.016063 41.63119 
L 99.743262 42.816875 
L 103.470462 44.253051 
L 107.197662 45.939718 
L 110.924861 47.876876 
L 113.099061 48.982158 
L 117.447461 50.712844 
L 121.795861 52.691789 
L 126.14426 54.91899 
L 130.49266 57.39445 
L 134.84106 60.118167 
L 136.704659 61.24712 
L 141.674259 63.916952 
L 146.643859 66.838885 
L 151.613458 70.012919 
L 156.583058 73.439054 
L 161.863257 77.355551 
L 166.522257 80.816539 
L 172.113056 84.754568 
L 177.703856 88.953588 
L 183.605256 93.669028 
L 189.506655 98.675263 
L 195.408055 103.972292 
L 201.309454 109.560115 
L 203.173054 111.235632 
L 209.695653 117.095512 
L 216.218253 123.258264 
L 222.740852 129.723889 
L 229.263452 136.492386 
L 236.096651 143.908043 
L 242.929851 151.656103 
L 249.76305 159.736567 
L 255.66445 166.705769 
L 263.118849 175.459259 
L 270.573248 184.562136 
L 278.027648 194.014402 
L 285.482047 203.816055 
L 293.247047 214.397639 
L 301.012046 225.358333 
L 308.777045 236.698137 
L 316.852645 248.893694 
L 324.928244 261.499296 
L 333.003843 274.241702 
L 333.003843 274.241702 
" clip-path="url(#pf0ed1305d7)" style="fill: none; stroke: #d62728; stroke-width: 1.5; stroke-linecap: square"/>
   </g>
   <g id="LineCollection_3">
    <path d="M 147.979096 273.312 
L 147.979096 18.194542 
" clip-path="url(#pf0ed1305d7)" style="fill: none; stroke: #1f77b4; stroke-width: 1.5"/>
   </g>
   <g id="line2d_18">
    <defs>
     <path id="m8f7e4dd505" d="M 0 2 
C 0.530406 2 1.03916 1.789267 1.414214 1.414214 
C 1.789267 1.03916 2 0.530406 2 0 
C 2 -0.530406 1.789267 -1.03916 1.414214 -1.414214 
C 1.03916 -1.789267 0.530406 -2 0 -2 
C -0.530406 -2 -1.03916 -1.789267 -1.414214 -1.414214 
C -1.789267 -1.03916 -2 -0.530406 -2 0 
C -2 0.530406 -1.789267 1.03916 -1.414214 1.414214 
C -1.03916 1.789267 -0.530406 2 0 2 
z
" style="stroke: #1f77b4"/>
    </defs>
    <g clip-path="url(#pf0ed1305d7)">
     <use xlink:href="#m8f7e4dd505" x="147.979096" y="109.26127" style="fill: #1f77b4; stroke: #1f77b4"/>
     <use xlink:href="#m8f7e4dd505" x="147.979096" y="100.571279" style="fill: #1f77b4; stroke: #1f77b4"/>
     <use xlink:href="#m8f7e4dd505" x="147.979096" y="92.714079" style="fill: #1f77b4; stroke: #1f77b4"/>
     <use xlink:href="#m8f7e4dd505" x="147.979096" y="85.597961" style="fill: #1f77b4; stroke: #1f77b4"/>
     <use xlink:href="#m8f7e4dd505" x="147.979096" y="79.233272" style="fill: #1f77b4; stroke: #1f77b4"/>
     <use xlink:href="#m8f7e4dd505" x="147.979096" y="73.774573" style="fill: #1f77b4; stroke: #1f77b4"/>
     <use xlink:href="#m8f7e4dd505" x="147.979096" y="69.623516" style="fill: #1f77b4; stroke: #1f77b4"/>
     <use xlink:href="#m8f7e4dd505" x="147.979096" y="67.666919" style="fill: #1f77b4; stroke: #1f77b4"/>
     <use xlink:href="#m8f7e4dd505" x="147.979096" y="69.855621" style="fill: #1f77b4; stroke: #1f77b4"/>
     <use xlink:href="#m8f7e4dd505" x="147.979096" y="80.759035" style="fill: #1f77b4; stroke: #1f77b4"/>
     <use xlink:href="#m8f7e4dd505" x="147.979096" y="112.403151" style="fill: #1f77b4; stroke: #1f77b4"/>
     <use xlink:href="#m8f7e4dd505" x="147.979096" y="202.996592" style="fill: #1f77b4; stroke: #1f77b4"/>
     <use xlink:href="#m8f7e4dd505" x="147.979096" y="520.240355" style="fill: #1f77b4; stroke: #1f77b4"/>
     <use xlink:href="#m8f7e4dd505" x="147.979096" y="2538.912654" style="fill: #1f77b4; stroke: #1f77b4"/>
     <use xlink:href="#m8f7e4dd505" x="147.979096" y="20197.864" style="fill: #1f77b4; stroke: #1f77b4"/>
    </g>
   </g>
   <g id="text_1">
    <!-- $x$ -->
    <g transform="translate(339.267075 267.189181) scale(0.12 -0.12)">
     <defs>
      <path id="CMMI12-78" d="M 3034 2606 
C 2829 2567 2752 2414 2752 2293 
C 2752 2139 2874 2088 2963 2088 
C 3155 2088 3290 2254 3290 2427 
C 3290 2695 2982 2816 2714 2816 
C 2323 2816 2106 2433 2048 2312 
C 1901 2816 1504 2816 1389 2816 
C 736 2816 390 1980 390 1839 
C 390 1814 416 1782 461 1782 
C 512 1782 525 1820 538 1846 
C 755 2555 1184 2689 1370 2689 
C 1658 2689 1715 2420 1715 2267 
C 1715 2127 1677 1980 1600 1673 
L 1382 798 
C 1286 415 1101 64 762 64 
C 730 64 570 64 435 147 
C 666 192 717 383 717 460 
C 717 588 621 664 499 664 
C 346 664 179 530 179 326 
C 179 57 480 -64 755 -64 
C 1062 -64 1280 179 1414 441 
C 1517 64 1837 -64 2074 -64 
C 2726 -64 3072 773 3072 913 
C 3072 945 3046 971 3008 971 
C 2950 971 2944 939 2925 888 
C 2752 326 2381 64 2093 64 
C 1869 64 1747 230 1747 492 
C 1747 632 1773 734 1875 1156 
L 2099 2024 
C 2195 2408 2413 2689 2707 2689 
C 2720 2689 2899 2689 3034 2606 
z
" transform="scale(0.015625)"/>
     </defs>
     <use xlink:href="#CMMI12-78" transform="scale(0.996264)"/>
    </g>
   </g>
   <g id="text_2">
    <!-- $z$ -->
    <g transform="translate(10.188006 18.194542) scale(0.12 -0.12)">
     <defs>
      <path id="CMMI12-7a" d="M 813 486 
C 1088 803 1312 1004 1632 1296 
C 2016 1632 2182 1793 2272 1891 
C 2720 2338 2944 2713 2944 2764 
C 2944 2816 2893 2816 2880 2816 
C 2835 2816 2822 2793 2790 2750 
C 2630 2494 2477 2367 2310 2367 
C 2176 2367 2106 2421 1984 2565 
C 1850 2715 1741 2816 1555 2816 
C 1088 2816 806 2257 806 2128 
C 806 2108 813 2068 870 2068 
C 922 2068 928 2091 947 2133 
C 1056 2372 1363 2414 1485 2414 
C 1619 2414 1747 2376 1882 2327 
C 2125 2240 2227 2240 2291 2240 
C 2336 2240 2362 2240 2394 2246 
C 2182 1994 1837 1683 1549 1418 
L 902 816 
C 512 415 275 33 275 -12 
C 275 -51 307 -64 346 -64 
C 384 -64 390 -57 435 14 
C 538 163 742 384 979 384 
C 1114 384 1178 342 1306 193 
C 1427 61 1536 -64 1741 -64 
C 2368 -64 2726 732 2726 876 
C 2726 903 2720 942 2656 942 
C 2605 942 2598 917 2579 855 
C 2438 488 2061 338 1811 338 
C 1677 338 1549 376 1414 425 
C 1158 512 1088 512 1005 512 
C 941 512 870 512 813 486 
z
" transform="scale(0.015625)"/>
     </defs>
     <use xlink:href="#CMMI12-7a" transform="scale(0.996264)"/>
    </g>
   </g>
   <g id="text_3">
    <!-- $f(x)$ -->
    <g style="fill: #d62728" transform="translate(246.397682 148.446265) scale(0.14 -0.14)">
     <defs>
      <path id="CMMI12-66" d="M 2854 2566 
C 2982 2566 3034 2566 3034 2688 
C 3034 2752 2982 2752 2867 2752 
L 2349 2752 
C 2470 3429 2560 3897 2611 4107 
C 2650 4265 2784 4416 2950 4416 
C 3085 4416 3219 4358 3283 4298 
C 3034 4272 2957 4082 2957 3969 
C 2957 3837 3053 3759 3174 3759 
C 3302 3759 3494 3870 3494 4119 
C 3494 4393 3226 4544 2944 4544 
C 2669 4544 2400 4334 2272 4078 
C 2157 3848 2093 3611 1946 2752 
L 1517 2752 
C 1395 2752 1331 2752 1331 2637 
C 1331 2566 1370 2566 1498 2566 
L 1907 2566 
C 1792 1976 1530 542 1382 -137 
C 1274 -689 1178 -1152 858 -1152 
C 838 -1152 653 -1152 538 -1031 
C 864 -1005 864 -726 864 -720 
C 864 -593 768 -517 646 -517 
C 518 -517 326 -625 326 -867 
C 326 -1140 608 -1280 858 -1280 
C 1510 -1280 1779 -118 1850 199 
C 1965 688 2278 2376 2310 2566 
L 2854 2566 
z
" transform="scale(0.015625)"/>
      <path id="CMR17-28" d="M 1958 -1561 
C 1958 -1555 1958 -1542 1939 -1523 
C 1645 -1224 858 -407 858 1581 
C 858 3569 1632 4379 1946 4697 
C 1946 4704 1958 4717 1958 4736 
C 1958 4755 1939 4768 1914 4768 
C 1843 4768 1299 4296 986 3594 
C 666 2887 576 2199 576 1588 
C 576 1128 621 351 1005 -471 
C 1312 -1135 1837 -1600 1914 -1600 
C 1946 -1600 1958 -1587 1958 -1561 
z
" transform="scale(0.015625)"/>
      <path id="CMR17-29" d="M 1683 1581 
C 1683 2040 1638 2817 1254 3639 
C 947 4303 422 4768 346 4768 
C 326 4768 301 4761 301 4729 
C 301 4717 307 4710 314 4697 
C 621 4378 1402 3568 1402 1584 
C 1402 -407 627 -1217 314 -1537 
C 307 -1549 301 -1556 301 -1568 
C 301 -1600 326 -1600 346 -1600 
C 416 -1600 960 -1128 1274 -426 
C 1594 281 1683 969 1683 1581 
z
" transform="scale(0.015625)"/>
     </defs>
     <use xlink:href="#CMMI12-66" transform="scale(0.996264)"/>
     <use xlink:href="#CMR17-28" transform="translate(58.720305 0) scale(0.996264)"/>
     <use xlink:href="#CMMI12-78" transform="translate(94.001073 0) scale(0.996264)"/>
     <use xlink:href="#CMR17-29" transform="translate(149.435132 0) scale(0.996264)"/>
    </g>
   </g>
  </g>
 </g>
 <defs>
  <clipPath id="pf0ed1305d7">
   <rect x="7.2" y="7.2" width="357.12" height="266.112"/>
  </clipPath>
 </defs>
</svg>
